<svg version="1.2" xmlns="http://www.w3.org/2000/svg" viewBox="0 0 20 20" width="20" height="20"><defs><clipPath clipPathUnits="userSpaceOnUse" id="cp1"><path d="m-658-458h1366v768h-1366z"/></clipPath></defs><style>.a{fill:#48c4b9}</style><g clip-path="url(#cp1)"><path class="a" d="m11.9 18.5q0 0 0 0c-0.3 0.6-0.3 0.5-0.9 0.3-0.4-0.2-0.3-0.2-0.6 0.1q0 0.1-0.1 0.1h-0.1c-0.1 0-0.1 0-0.1 0q-0.2-0.1-0.2-0.3c0.1-0.4 0.1-0.4-0.2-0.5q-0.1 0-0.2-0.1-0.2-0.1-0.3 0.1 0 0-0.1 0.1c-0.1 0.2-0.3 0.2-0.5 0-0.1 0 0-0.1 0-0.2 0.1-0.4 0.1-0.4-0.3-0.6q0 0 0 0c-0.1 0-0.3-0.2-0.4-0.2-0.2 0-0.3 0.2-0.4 0.3q-0.1 0.1-0.3 0c-0.1 0-0.2-0.1-0.2-0.2q0.1-0.1 0.1-0.1c0.1-0.4 0.1-0.4-0.3-0.6-0.9-0.6-1.7-1.2-2.5-1.9q-0.5-0.3-1-0.7-0.2-0.2-0.4 0-0.1 0.1-0.2 0.2c-0.2 0.1-0.3 0.1-0.5 0-0.2-0.2-0.2-0.2-0.1-0.4q0 0 0-0.1c0.2-0.4 0.2-0.4-0.2-0.7-0.5-0.3-0.3-0.3-0.8 0-0.2 0.2-0.2 0.2-0.4 0-0.3-0.1-0.3-0.2-0.2-0.4q0.1-0.1 0.1-0.2 0.2-0.2-0.1-0.4-0.1-0.1 0-0.3 0.2-0.5 0.5-0.9c0.1 0.4 0.2 0.7 0.5 1q0.6 0.5 1.2 0.9 0 0 0 0 1.1 0.8 2.2 1.6c1.1 0.7 2.1 1.5 3.2 2.2 0.5 0.2 0.9 0.5 1.4 0.7q1.2 0.7 2.4 1.2z"/><path class="a" d="m19.1 12.1c0 0.1 0 0.3-0.1 0.5q-0.1 0.6-0.4 1.2-0.1 0.1-0.2 0.2c-0.4 0-0.8 0-1.2 0q-0.3 0.1-0.4-0.1 0 0 0-0.1c0.2-0.2 0.3-0.4 0.4-0.7q0.3-1 0.2-2.1 0-0.1 0-0.1 0.1 0 0.2-0.1c0.2-0.1 0.4 0 0.5 0.1q0.5 0.4 1 0.8z"/><path class="a" d="m19.1 11.7q-0.5-0.4-1-0.8c-0.1-0.1-0.3-0.2-0.5-0.1q-0.1 0.1-0.2 0.1-0.1-0.2-0.1-0.5 0.1-0.1 0.3-0.1 0.2-0.1 0.2-0.3 0.2-0.6 0.3-1.2c0.4 0.4 0.6 0.8 0.8 1.3q0.2 0.5 0.2 1 0 0 0 0z"/><path class="a" d="m5 4.4c0-0.1 0-0.2 0.1-0.3q0.5-1.8 1.1-3.5c0-0.2 0.1-0.3 0.3-0.3q2.7 0 5.4 0 0 0 0 0 0 0.1 0 0.2-0.9 1.5-1.9 3-0.6 1-1.2 2-0.8-0.3-1.7-0.5-1.1-0.3-2.1-0.6z"/><path class="a" d="m17.3 10.4q0 0.3 0.1 0.5 0 0 0 0.1c-0.3 0.1-0.7 0.2-1 0.3-0.1 0-0.1 0.1-0.1 0.2q-0.2 0.5-0.4 1 0 0.1 0.1 0.2 0.4 0.6 0.8 1.1 0 0.1 0 0.1c-0.1 0.1-0.2 0.3-0.3 0.4q-0.5-0.6-0.9-1.2-0.1-0.2-0.3-0.2-0.6 0-1.2 0-0.1 0-0.2 0.1-0.4 0.6-0.8 1.2-0.1 0.2-0.1 0.3 0.2 0.5 0.3 0.9c0.1 0.2 0.2 0.3 0.2 0.4q-1.3-0.4-2.2-1.4-0.2-0.2-0.3-0.4 0.7 0 1.4 0 0.1 0 0.2-0.1 0.4-0.6 0.9-1.2 0-0.1 0-0.2-0.2-0.5-0.3-1-0.1-0.2-0.2-0.2-0.7-0.3-1.3-0.5-0.1-0.1-0.2 0-0.6 0.4-1.2 0.9c0-0.3 0-0.6 0.1-0.9q0.2-1.1 0.9-2c0.1 0.1 0.1 0.2 0.1 0.2q0.1 0.6 0.3 1.1 0 0.1 0.1 0.1 0.7 0.3 1.4 0.6 0.1 0 0.2-0.1 0.4-0.3 0.9-0.6 0.1-0.1 0.1-0.3 0-0.6 0-1.3c0-0.1 0-0.1 0-0.2-0.4-0.2-0.8-0.5-1.2-0.8 0.1-0.1 0.2-0.1 0.4-0.2q0.2 0 0.3 0c0.3 0.1 0.5 0.1 0.8 0.2 0.3 0.2 0.6 0.3 0.8 0.5q-0.2 0.2-0.4 0.3-0.1 0.1-0.1 0.2 0 0.7 0 1.3 0 0.2 0.1 0.2 0.5 0.4 1 0.7 0.1 0.1 0.2 0.1 0.5-0.2 0.9-0.4z"/><path fill-rule="evenodd" class="a" d="m9.5 17.3c-0.5-0.2-0.9-0.5-1.4-0.7-1.1-0.7-2.1-1.5-3.2-2.2q-1.1-0.8-2.2-1.6 0 0 0 0c0.3-0.5 0.3-1.1 0.2-1.6-0.1-0.7-0.4-1.3-0.9-1.9 0.5-0.4 1-0.7 1.5-0.9q0.1-0.1 0.3 0 0.2 0.2 0.2 0.4 0 0.3 0 0.7c0 0.6 0.4 0.9 0.9 1.1q0.4 0 0.8 0.1 0 0.1 0 0.2 0.5 0.8 1 1.7 0.7 1.3 1.4 2.6c0.4 0.6 0.7 1.2 1.1 1.7 0.1 0.1 0.3 0.2 0.3 0.4zm-4.3-3.9c0.6 0.1 1.1-0.4 1.1-1 0-0.5-0.4-1.1-1.1-1.1-0.6 0-1 0.5-1 1.1 0 0.7 0.6 1.1 1 1z"/><path class="a" d="m9.5 17.3c0-0.2-0.2-0.3-0.3-0.4-0.4-0.5-0.7-1.1-1.1-1.7q-0.7-1.3-1.4-2.6-0.5-0.9-1-1.7 0-0.1 0-0.2 0 0 0 0c0.4 0.1 0.4 0.1 0.6-0.3q0.6-1.3 2-1.2c0.1 0 0.1 0 0.1 0.1q-0.4 0.8-0.8 1.7c0 0.1-0.1 0.1 0 0.2 0.2 0.1 0.3 0.4 0.4 0.6-0.2 0-0.3 0-0.5 0q-0.3 0.1-0.3 0.3c0 0.2 0.2 0.3 0.4 0.3 0.2-0.1 0.5 0 0.7-0.1q0.1 0.2 0.2 0.3c-0.1 0.1-0.2 0.1-0.2 0.1-0.1 0-0.2 0-0.4 0q-0.2 0.1-0.2 0.3 0.1 0.2 0.3 0.2 0.4 0 0.8 0 0.1 0.2 0.2 0.4c-0.1 0-0.3 0-0.4 0-0.2 0-0.3 0.1-0.3 0.3 0 0.1 0 0.2 0.2 0.2q0.4 0.1 0.8 0 0.2 0.2 0.3 0.4-0.3 0-0.5 0-0.3 0.1-0.3 0.3c0 0.2 0.1 0.3 0.3 0.3 0.3 0 0.5 0 0.8-0.1 0.2 0.4 0.6 0.7 0.8 1.1q0.6 0.7 1.2 1.4 0.4 0.5 0 1-1.2-0.5-2.4-1.2z"/><path class="a" d="m8.8 5.5q0.6-1 1.2-2 1-1.5 1.9-3 0-0.1 0-0.2 0.8 0 1.6 0c0.2 0 0.3 0.2 0.2 0.4q-0.4 0.6-0.8 1.2-1.1 2-2.3 3.9-0.1 0.1-0.1 0.2-0.8-0.3-1.6-0.5z"/><path class="a" d="m10.3 11.7q0.6-0.5 1.2-0.9 0.1-0.1 0.2 0 0.6 0.2 1.3 0.5 0.1 0 0.2 0.2 0.1 0.5 0.3 1 0 0.1 0 0.2-0.5 0.6-0.9 1.2-0.1 0.1-0.2 0.1-0.7 0-1.4 0-0.5-0.8-0.6-1.7-0.1-0.3-0.1-0.6z"/><path class="a" d="m13.2 7.5c0.4 0.3 0.8 0.6 1.2 0.8 0 0.1 0 0.1 0 0.2q0 0.7 0 1.3 0 0.2-0.1 0.3-0.5 0.3-0.9 0.6-0.1 0.1-0.2 0.1-0.7-0.3-1.4-0.6-0.1 0-0.1-0.1-0.2-0.5-0.3-1.1c0 0 0-0.1-0.1-0.2q0.7-0.8 1.7-1.2 0.1-0.1 0.2-0.1z"/><path class="a" d="m13.5 15.8c0-0.1-0.1-0.2-0.2-0.4q-0.1-0.4-0.3-0.9 0-0.1 0.1-0.3 0.4-0.6 0.8-1.2 0.1-0.1 0.2-0.1 0.6 0 1.2 0 0.2 0 0.3 0.2 0.4 0.6 0.9 1.2 0 0.1-0.1 0.2c-0.2 0-0.2 0.2-0.4 0.3q-0.8 0.8-1.9 1.1c-0.1 0-0.1 0-0.1 0.1z"/><path class="a" d="m8.4 9.3c0-0.1 0-0.1-0.1-0.1q-1.4-0.1-2 1.2c-0.2 0.4-0.2 0.4-0.6 0.3q0 0 0 0c0-0.2 0.2-0.4 0.3-0.6q1-1.7 2-3.3 0.1-0.1 0.1-0.2 0 0 0 0 0.8 0.3 1.6 0.5c0 0.3-0.2 0.4-0.3 0.6q-0.5 0.8-1 1.6z"/><path class="a" d="m8.1 6.6q0 0 0 0-1-0.3-2-0.6-0.7-0.2-1.4-0.4c-0.1 0-0.1 0-0.1-0.2q0.2-0.5 0.3-1 0.1 0 0.1 0 1 0.3 2.1 0.6 0.9 0.2 1.7 0.5 0.1 0 0.1 0c-0.2 0-0.2 0.1-0.2 0.2-0.2 0.3-0.4 0.6-0.6 0.9z"/><path class="a" d="m2 9.3c0.5 0.6 0.8 1.2 0.9 1.9 0.1 0.5 0.1 1.1-0.2 1.6q-0.6-0.4-1.2-0.9c-0.3-0.3-0.4-0.6-0.5-1q0.4-0.8 0.9-1.5 0.1 0 0.1-0.1z"/><path class="a" d="m17.3 10.4h-0.1q0-0.1 0-0.1-0.3-1.2-1.3-2.1c-0.1 0-0.3-0.1-0.3-0.2 0.2-0.2 0.5-0.3 0.7-0.5q1.1 0.4 1.8 1.3-0.1 0.6-0.3 1.2 0 0.2-0.2 0.3-0.2 0-0.3 0.1z"/><path class="a" d="m16.4 14.5q0.1-0.1 0.1-0.2c0.1-0.1 0.2-0.3 0.3-0.4q0.1 0.2 0.4 0.1c0.4 0 0.8 0 1.2 0 0 0.1-0.1 0.2-0.2 0.3q-0.8 1.1-2.1 1.5 0 0-0.1 0c0-0.1 0-0.1 0.1-0.2q0.1-0.6 0.3-1.1z"/><path class="a" d="m8.1 6.6c0.2-0.3 0.4-0.6 0.6-0.9 0-0.1 0-0.2 0.2-0.2q0.8 0.2 1.6 0.5c-0.2 0.4-0.5 0.7-0.7 1.1q0 0-0.1 0-0.8-0.2-1.6-0.5z"/><path class="a" d="m16.4 14.5q-0.2 0.5-0.3 1.1c-0.1 0.1-0.1 0.1-0.1 0.2q0 0 0 0.1-1 0.2-2 0.1c0-0.1 0-0.1 0.1-0.1 0.7-0.2 1.4-0.5 1.9-1.1 0.2-0.1 0.2-0.3 0.4-0.3z"/><path class="a" d="m16.3 7.5c-0.2 0.2-0.5 0.3-0.7 0.5q0 0-0.1 0c-0.2-0.2-0.5-0.3-0.8-0.5-0.3-0.1-0.5-0.1-0.8-0.2 0.6-0.2 1.3-0.1 1.9 0q0.3 0.1 0.5 0.2z"/><path class="a" d="m8.3 12.3c-0.2 0.1-0.5 0-0.7 0.1-0.2 0-0.4-0.1-0.4-0.3q0-0.2 0.3-0.3c0.2 0 0.3 0 0.5 0q0.1 0 0.1 0 0.2 0 0.3 0.2c0.1 0.1 0 0.2-0.1 0.3z"/><path class="a" d="m8.8 13.2q-0.4 0-0.8 0-0.2 0-0.3-0.2 0-0.2 0.2-0.3c0.2 0 0.3 0 0.4 0 0 0 0.1 0 0.2-0.1q0 0 0.1 0c0.1 0 0.2 0.1 0.3 0.2 0.1 0.2 0 0.3-0.1 0.4z"/><path class="a" d="m9.9 15c-0.3 0.1-0.5 0.1-0.8 0.1-0.2 0-0.3-0.1-0.3-0.3q0-0.2 0.3-0.3 0.2 0 0.5 0 0 0 0.1 0c0.1 0 0.2 0 0.3 0.2q0.1 0.2-0.1 0.3z"/><path class="a" d="m9.3 14.1q-0.4 0.1-0.8 0c-0.2 0-0.2-0.1-0.2-0.2 0-0.2 0.1-0.3 0.3-0.3 0.1 0 0.3 0 0.4 0q0.1 0 0.2 0 0.2-0.1 0.2 0.1 0.1 0.2-0.1 0.4z"/><path class="a" d="m16 15.9q0-0.1 0-0.1 0 0 0 0.1z"/><path class="a" d="m16.8 13.8q-0.4-0.5-0.8-1.1-0.1-0.1-0.1-0.2 0.2-0.5 0.4-1c0-0.1 0-0.2 0.1-0.2 0.3-0.1 0.7-0.2 1-0.3q0.1 1.1-0.2 2.1c-0.1 0.3-0.2 0.5-0.4 0.7z"/><path class="a" d="m15.5 8q0.1 0 0.1 0c0 0.1 0.2 0.2 0.3 0.2q1 0.9 1.3 2.1 0 0 0 0.1-0.4 0.2-0.9 0.4-0.1 0-0.2-0.1-0.5-0.3-1-0.7-0.1 0-0.1-0.2 0-0.6 0-1.3 0-0.1 0.1-0.2 0.2-0.1 0.4-0.3z"/><circle class="a" cx="5.2" cy="12.4" r="1.1"/><path class="a" d="m8.5 5.5c0 0.1 0 2 0 2 0 0-2.2 3.7-2.2 3.8 0 0.1-2.2-0.4-2.2-0.4l-1.2-2 1.7-3.4c0 0 3.9-0.1 3.9 0z"/></g></svg>