<svg version="1.2" xmlns="http://www.w3.org/2000/svg" viewBox="0 0 16 17" width="16" height="17"><defs><clipPath clipPathUnits="userSpaceOnUse" id="cp1"><path d="m-1109-64h1366v768h-1366z"/></clipPath></defs><style>.a{fill:#fff}</style><g clip-path="url(#cp1)"><path class="a" d="m11.6 8.5c0 0.3-0.2 0.6-0.6 0.6h-2.7v2.7c0 0.4-0.3 0.6-0.6 0.6-0.3 0-0.6-0.2-0.6-0.6 0-0.3 0-2.7 0-2.7 0 0-2.4 0-2.8 0-0.3 0-0.5-0.2-0.5-0.6 0-0.4 0.2-0.6 0.5-0.6h2.8v-2.7c0-0.4 0.3-0.6 0.6-0.6 0.3 0 0.6 0.2 0.6 0.6v2.7h2.7c0.4 0 0.6 0.3 0.6 0.6z"/><path fill-rule="evenodd" class="a" d="m15.4 8.5c0 4.3-3.4 7.7-7.7 7.7-4.3 0-7.7-3.4-7.7-7.7 0-4.3 3.4-7.7 7.7-7.7 4.3 0 7.7 3.4 7.7 7.7zm-12.4-4.7c-1.3 1.2-2 2.9-2 4.7 0 1.8 0.7 3.5 2 4.7 1.2 1.3 2.9 2 4.7 2 1.8 0 3.5-0.7 4.7-2 1.3-1.2 2-2.9 2-4.7 0-1.8-0.7-3.5-2-4.7-1.2-1.3-2.9-2-4.7-2-1.8 0-3.5 0.7-4.7 2z"/></g></svg>